PathFileType	4	(X/Y/Z)	 s02c0201.trc
DataRate	CameraRate	NumFrames	NumMarkers	Units	OrigDataRate	OrigDataStartFrame	OrigNumFrames
200	200	4	51	mm	200	1501	2000
Frame#	Time	racr			lacr			c7			jug			rlel			rdr			llel			ldr			s2			lic			ric			lasi			rasi			rpsi			lpsi			rgt			lgt			rth1			rth2			rth3			rth4			rlfc			rmfc			rsh1			rsh2			rsh3			rsh4			rlmal			rmmal			rcal			rtoe			rmt5			rmt1			lth1			lth2			lth4			lth3			llfc			lmfc			lsh1			lsh2			lsh3			lsh4			llmal			lmmal			lcal			ltoe			lmt5			SBIKE			LBIKE			RBIKE			
		X1	Y1	Z1	X2	Y2	Z2	X3	Y3	Z3	X4	Y4	Z4	X5	Y5	Z5	X6	Y6	Z6	X7	Y7	Z7	X8	Y8	Z8	X9	Y9	Z9	X10	Y10	Z10	X11	Y11	Z11	X12	Y12	Z12	X13	Y13	Z13	X14	Y14	Z14	X15	Y15	Z15	X16	Y16	Z16	X17	Y17	Z17	X18	Y18	Z18	X19	Y19	Z19	X20	Y20	Z20	X21	Y21	Z21	X22	Y22	Z22	X23	Y23	Z23	X24	Y24	Z24	X25	Y25	Z25	X26	Y26	Z26	X27	Y27	Z27	X28	Y28	Z28	X29	Y29	Z29	X30	Y30	Z30	X31	Y31	Z31	X32	Y32	Z32	X33	Y33	Z33	X34	Y34	Z34	X35	Y35	Z35	X36	Y36	Z36	X37	Y37	Z37	X38	Y38	Z38	X39	Y39	Z39	X40	Y40	Z40	X41	Y41	Z41	X42	Y42	Z42	X43	Y43	Z43	X44	Y44	Z44	X45	Y45	Z45	X46	Y46	Z46	X47	Y47	Z47	X48	Y48	Z48	X49	Y49	Z49	X50	Y50	Z50	X51	Y51	Z51	
1501	7.5050	559.611693	1219.646004	-169.412595	568.218661	1221.858536	-477.869242	538.948585	1267.535046	-325.967548	506.377546	1128.188527	-328.320027	534.782175	990.059858	-38.851868	696.900479	885.375750	-107.027809	516.696531	979.590816	-621.352040	692.705947	890.397550	-522.510015	4.428884	1116.913698	-332.450095	141.748673	1112.310909	-474.405122	126.442102	1135.310124	-189.593039	178.807386	1079.772624	-446.810698	178.616374	1108.184762	-213.084091	34.204850	1170.690739	-291.729107	40.456594	1180.297711	-374.880307	118.991747	1071.926096	-141.459663	81.952453	1012.392078	-495.770208	199.532975	1060.979571	-144.625666	287.096421	1060.833538	-152.438228	363.091347	1029.742120	-127.436541	294.224568	1083.425067	-182.531988	493.371072	957.665980	-159.105759	483.379205	933.136995	-273.327765	459.797800	853.843278	-146.073966	424.138833	774.089296	-162.751968	356.957450	719.890463	-158.385825	436.067741	767.576465	-200.827343	270.759526	629.420898	-161.641652	288.162328	640.372932	-241.976164	185.962974	616.672746	-205.965908	433.851671	474.949337	-184.305901	327.893088	516.016886	-133.982787	362.783183	509.421984	-238.263450	169.201403	900.350333	-518.713876	225.501532	833.669075	-521.479814	257.485829	848.749967	-508.996730	239.504839	745.693459	-517.695583	285.098632	657.469898	-493.866847	292.739226	628.739061	-393.067484	265.272857	557.455848	-514.996402	273.944041	472.908416	-500.830880	234.750473	390.596516	-499.625103	294.156577	472.397168	-464.792560	208.775258	289.350474	-485.506433	222.387451	285.048133	-408.323354	135.997345	268.172806	-447.937563	389.594823	129.778734	-434.144491	288.235567	154.604184	-502.192200	-162.657886	859.688176	-311.667083	37.747327	86.495760	-514.516946	33.918471	83.221580	-114.239375	
1502	7.5100	558.725103	1218.938364	-168.030983	569.484542	1220.427357	-475.593618	539.275802	1266.525299	-323.999961	506.390891	1127.248409	-326.448061	534.371836	989.244029	-38.692861	696.692571	885.421136	-106.989264	517.283625	979.987702	-621.600924	692.718340	890.240726	-523.042451	3.524498	1118.034081	-331.086972	141.371429	1113.681904	-475.173528	126.220835	1137.145394	-190.394027	177.662086	1081.022907	-446.871000	178.398361	1110.015106	-213.791505	34.234440	1172.825200	-292.623450	40.051745	1182.888719	-375.719646	118.691748	1074.470539	-142.041028	81.223757	1013.481691	-496.441193	198.987050	1062.465784	-145.069981	286.548203	1061.387747	-152.248683	362.012495	1029.433305	-126.669358	294.193822	1084.165120	-182.067339	492.519916	957.951229	-158.210555	483.595466	933.308250	-272.701342	460.690604	853.996172	-145.082337	426.582348	773.534657	-161.687805	360.319007	718.331112	-157.669409	438.894208	767.082245	-199.618515	275.514603	625.227760	-161.409250	292.421963	636.589727	-241.621377	190.546909	609.429403	-205.462820	443.952891	477.936974	-184.327485	336.464571	514.597161	-133.483923	372.357645	509.483212	-238.636070	168.477316	901.431333	-519.192612	224.863616	834.871941	-522.029553	256.841124	849.941994	-509.633162	238.961753	746.924862	-518.324738	284.792629	658.776812	-494.220486	292.845285	630.361463	-393.168759	263.630079	559.077109	-515.127807	270.214242	474.330443	-500.620990	229.276783	392.991461	-499.388633	290.603323	473.469717	-464.747213	200.922365	292.441967	-485.188252	214.849848	287.698529	-407.854293	127.822503	272.280205	-447.383847	379.066889	130.024597	-434.307040	277.964701	156.341105	-502.060897	-162.674499	860.267913	-309.984023	37.737201	86.499309	-514.524715	33.913243	83.241507	-114.229047	
1503	7.5150	557.881411	1217.942664	-166.626645	570.670941	1218.895873	-473.389736	539.526128	1265.518916	-322.155753	506.231871	1126.338363	-324.865191	533.862724	988.269416	-38.522839	696.441630	885.442215	-106.982127	517.732793	980.334595	-621.957215	692.780815	890.096595	-523.274485	4.477580	1120.647272	-334.887567	140.812879	1115.159337	-475.941174	126.219564	1138.908178	-191.138615	177.043617	1082.070603	-447.674591	178.252943	1111.767335	-214.360818	34.210985	1174.970141	-293.549408	40.171216	1185.603833	-376.690419	118.629589	1076.316185	-142.838505	80.670127	1014.589996	-497.088495	198.562453	1063.511417	-145.396443	286.173010	1061.524157	-151.848717	361.087397	1028.431406	-125.993672	294.285779	1084.458720	-181.473991	491.589574	956.981343	-157.479406	483.544512	932.147728	-271.957801	461.007295	852.639368	-144.110696	428.326239	771.571392	-160.532398	362.851745	715.235627	-156.750223	441.054520	765.174316	-198.417690	279.775026	619.866371	-161.035421	296.153824	631.694547	-241.096129	194.951376	600.938584	-205.161280	453.572273	480.634477	-184.231810	344.522951	512.361861	-132.702328	380.148366	509.225884	-237.588310	168.164893	902.717088	-519.598811	224.773313	836.373345	-522.431039	256.568983	851.578278	-509.990428	239.243149	748.509883	-518.718194	285.264353	660.461891	-494.540303	293.762315	632.222412	-393.351947	262.640506	561.116603	-515.079162	266.752554	475.985019	-499.672149	224.340983	395.927305	-499.186847	287.562138	474.937615	-464.430773	193.201546	296.178981	-484.733397	207.212454	291.112330	-407.420316	119.755213	277.129917	-446.798965	368.640435	130.925902	-434.493452	267.816431	158.705264	-501.904873	-162.645060	860.244939	-310.007063	37.747495	86.503020	-514.526021	33.390118	83.683977	-114.302170	
1504	7.5200	556.985137	1217.110371	-165.095241	571.654296	1217.361105	-471.333737	539.776896	1264.549672	-320.573853	505.847526	1125.517647	-323.328622	532.940828	987.407156	-38.171590	696.165379	885.427950	-106.920508	518.195674	980.583944	-622.404494	692.755959	889.979089	-523.354716	4.215935	1122.346717	-335.318675	140.346989	1116.502309	-476.574898	126.239055	1140.571288	-191.819254	176.188054	1083.209644	-448.278906	178.086425	1113.396323	-215.014896	34.271448	1176.938421	-294.238099	40.397669	1188.458390	-377.521507	118.505853	1077.825205	-143.694012	80.039090	1015.914187	-497.591329	198.254055	1064.280327	-145.615121	285.977128	1061.128724	-151.415950	360.287658	1026.715495	-125.408311	294.544255	1084.106253	-180.830253	490.575757	954.821817	-156.939475	483.160705	929.464562	-271.309030	460.633564	849.848639	-143.080796	429.439778	768.108728	-159.272970	364.796503	710.751522	-156.024425	442.598398	761.834445	-197.014197	283.644041	613.533316	-160.599197	299.749655	625.389016	-240.697662	199.062648	591.079265	-204.323943	462.849171	483.159496	-184.200528	352.261064	509.155589	-131.612846	387.965663	508.420204	-236.970533	168.273326	904.210506	-519.911551	225.278422	838.112855	-522.659094	257.011762	853.554295	-510.321530	240.282972	750.359188	-518.963019	286.630459	662.573938	-494.799977	295.467512	634.529807	-393.400317	262.327255	563.550481	-515.033213	263.583883	478.379005	-498.895776	219.823170	399.489348	-498.811110	285.047579	476.797681	-464.206625	185.785044	300.620271	-484.315172	200.092043	295.154600	-406.952949	112.028128	282.627660	-446.001492	358.316448	132.393795	-434.631319	257.770180	161.793651	-501.682401	-162.682509	860.361508	-309.530774	37.718528	86.532944	-514.514603	33.905062	83.242174	-114.227153	
